# xmcd
#
# Track frame offsets:
#	150
#	10435
#	22567
#	34952
#	47265
#	56790
#	66557
#	78332
#	88704
#	98390
#	109702
#	120110
#	132002
#	142912
#	153337
#	165652
#	175505
#	186850
#	199420
#	209505
#	222180
#	233747
#	244037
#	255862
#	268877
#	279760
#	292805
#	303245
#	312867
#	326227
#	338282
#
# Disc length: 4675 seconds
#
# Revision: 2
# Processed by: cddbd v1.5.1PL2 Copyright (c) Steve Scherf et al.
# Submitted via: audiograbber 1.83.01
#
DISCID=9812411f
DTITLE=Julie London - Swing me an old song
DYEAR=1996
DGENRE=
TTITLE0=Come on - a my house
TTITLE1=Evening
TTITLE2=Send for me
TTITLE3=Everyday I have the blues
TTITLE4=Yes indeed
TTITLE5=Tain't what you do
TTITLE6=The boy from Ipanema
TTITLE7=Every chance i get
TTITLE8=Must be catchin'
TTITLE9=I'm coming back to you
TTITLE10=Can't get used to losin' you
TTITLE11=Watermelon man
TTITLE12=But not for me
TTITLE13=Why don't you do right7
TTITLE14=Fly me to the moon
TTITLE15=Desafinado
TTITLE16=An occasional man
TTITLE17=My heart belongs to daddy
TTITLE18=Daddy
TTITLE19=Tired
TTITLE20=Fools rush in
TTITLE21=I want to find out for myself
TTITLE22=Wives and lovers
TTITLE23=Baby come home
TTITLE24=Our day will come
TTITLE25=Back home again in Indiana
TTITLE26=The end of a love affair
TTITLE27=You don't have to baby to cry
TTITLE28=Cry me a river
TTITLE29=Moments like this
TTITLE30=the end of the world
EXTD=
EXTT0=
EXTT1=
EXTT2=
EXTT3=
EXTT4=
EXTT5=
EXTT6=
EXTT7=
EXTT8=
EXTT9=
EXTT10=
EXTT11=
EXTT12=
EXTT13=
EXTT14=
EXTT15=
EXTT16=
EXTT17=
EXTT18=
EXTT19=
EXTT20=
EXTT21=
EXTT22=
EXTT23=
EXTT24=
EXTT25=
EXTT26=
EXTT27=
EXTT28=
EXTT29=
EXTT30=
PLAYORDER=
